<?xml version="1.0" encoding="UTF-8"?>
<svg id="Layer_2" data-name="Layer 2" xmlns="http://www.w3.org/2000/svg" viewBox="0 0 180.9 40.44">
  <defs>
    <style>
      .cls-1 {
        fill: #404040;
        stroke-width: 0px;
      }
    </style>
  </defs>
  <g>
    <path className="cls-1" d="M14.68,22.39v1.73H.8V.37h1.8v22.02h12.08Z"/>
    <path className="cls-1" d="M39.62,12.25c0,6.99-5.29,12.25-12.18,12.25s-12.21-5.26-12.21-12.25S20.58,0,27.44,0s12.18,5.26,12.18,12.25ZM17.05,12.25c0,6.01,4.55,10.52,10.38,10.52s10.38-4.51,10.35-10.52c.03-6.01-4.55-10.52-10.35-10.52s-10.38,4.51-10.38,10.52Z"/>
    <path className="cls-1" d="M42.64,12.25c0-7.06,5.23-12.25,12.21-12.25,5.16,0,9.4,2.99,11.13,7.67h-1.93c-1.59-3.56-5.06-5.94-9.26-5.94-5.84,0-10.35,4.55-10.35,10.52s4.51,10.52,10.35,10.52c4.21,0,7.67-2.37,9.26-5.94h1.93c-1.73,4.68-5.97,7.67-11.13,7.67-6.99,0-12.21-5.19-12.21-12.25Z"/>
    <path className="cls-1" d="M103.07,2.1h-8.08v22.02h-1.8V2.1h-8.08V.37h17.95v1.73Z"/>
    <path className="cls-1" d="M106.19.37h1.8v23.75h-1.8V.37Z"/>
    <path className="cls-1" d="M136.39,12.25c0,6.99-5.29,12.25-12.18,12.25s-12.21-5.26-12.21-12.25S117.35,0,124.21,0s12.18,5.26,12.18,12.25ZM113.82,12.25c0,6.01,4.55,10.52,10.38,10.52s10.38-4.51,10.35-10.52c.03-6.01-4.55-10.52-10.35-10.52s-10.38,4.51-10.38,10.52Z"/>
    <path className="cls-1" d="M159.19.37v23.75h-2.41l-14.9-21.58.14,11.64v9.94h-1.8V.37h2.38l14.93,21.58-.14-11.64V.37h1.8Z"/>
    <path className="cls-1" d="M180.9,17.68c0,4.58-3.83,6.82-8.52,6.82-6.01,0-9.13-3.05-9.94-7.26h1.8c.92,3.6,3.56,5.56,8.08,5.56,4.11,0,6.79-1.8,6.79-5.02,0-3.05-2.48-3.73-7.36-4.82-5.39-1.22-8.62-2.38-8.62-6.34,0-4.17,3.66-6.62,8.28-6.62,5.16,0,8.14,2.41,9.13,5.8h-1.8c-1.09-2.61-3.56-4.11-7.26-4.11s-6.55,1.8-6.55,4.99c0,2.31,1.59,3.26,7.23,4.51,5.33,1.19,8.75,2.17,8.75,6.48Z"/>
  </g>
  <g>
    <path className="cls-1" d="M4.96,34.28v6.06h-.72v-2.79H.72v2.79h-.72v-6.06h.72v2.59h3.52v-2.59h.72Z"/>
    <path className="cls-1" d="M21.45,37.32c0,1.78-1.36,3.13-3.13,3.13s-3.13-1.34-3.13-3.13,1.37-3.13,3.14-3.13,3.12,1.34,3.12,3.13ZM15.92,37.32c0,1.39,1.05,2.44,2.4,2.44s2.4-1.04,2.4-2.44-1.05-2.44-2.4-2.44-2.4,1.05-2.4,2.44Z"/>
    <path className="cls-1" d="M35.33,39.66v.68h-3.64v-6.06h.72v5.38h2.92Z"/>
    <path className="cls-1" d="M45.36,34.28h.72v6.06h-.72v-6.06Z"/>
    <path className="cls-1" d="M61.75,37.32c0,1.76-1.35,3.03-3.11,3.03h-2.05v-6.06h2.05c1.77,0,3.11,1.26,3.11,3.03ZM61.03,37.32c0-1.38-1.03-2.35-2.38-2.35h-1.34v4.7h1.34c1.35,0,2.37-.97,2.38-2.35Z"/>
    <path className="cls-1" d="M75.44,38.53h-2.82l-.72,1.82h-.76l2.43-6.06h.93l2.43,6.06h-.76l-.72-1.82ZM75.17,37.84l-1.13-2.88-1.13,2.88h2.27Z"/>
    <path className="cls-1" d="M88.58,38.17v2.17h-.72v-2.16l-2.24-3.91h.81l1.78,3.1,1.78-3.1h.82l-2.24,3.89Z"/>
    <path className="cls-1" d="M117.38,34.28v6.06h-.72v-2.79h-3.52v2.79h-.72v-6.06h.72v2.59h3.52v-2.59h.72Z"/>
    <path className="cls-1" d="M133.88,37.32c0,1.78-1.36,3.13-3.13,3.13s-3.13-1.34-3.13-3.13,1.37-3.13,3.14-3.13,3.12,1.34,3.12,3.13ZM128.35,37.32c0,1.39,1.05,2.44,2.4,2.44s2.4-1.04,2.4-2.44-1.05-2.44-2.4-2.44-2.4,1.05-2.4,2.44Z"/>
    <path className="cls-1" d="M149.69,34.28v6.06h-.72v-5.14l-2.05,3.1h-.07l-2.05-3.1v5.14h-.72v-6.06h.88l1.92,2.89,1.92-2.89h.88Z"/>
    <path className="cls-1" d="M160.91,34.97v1.92h2.92v.68h-2.92v2.09h3.13v.68h-3.85v-6.06h3.85v.68h-3.13Z"/>
    <path className="cls-1" d="M178.56,38.66c0,1.24-1.07,1.78-2.22,1.78-1.61,0-2.38-.85-2.57-1.91h.73c.2.81.77,1.24,1.83,1.24.94,0,1.51-.39,1.51-1.08s-.56-.81-1.74-1.07c-1.28-.29-2.16-.6-2.16-1.67,0-1.13,1-1.76,2.17-1.76,1.42,0,2.15.7,2.37,1.61h-.73c-.23-.58-.75-.94-1.63-.94s-1.46.41-1.46,1.08c0,.5.38.69,1.6.97,1.45.32,2.3.6,2.3,1.74Z"/>
  </g>
  <polygon className="cls-1" points="73.14 13.12 90.37 24.86 87.67 19.46 74.49 10.43 74.9 9.49 87.05 18 84.56 12.92 76.15 6.89 78.22 2.74 81.86 10.01 83.72 11.36 78.22 .25 74.9 7.31 83.72 13.33 84.97 15.51 74.49 8.04 73.24 10.74 87.05 20.18 88.09 22.16 72.72 11.46 66.6 24.34 67.84 24.34 73.14 13.12"/>
</svg>