<?xml version="1.0" encoding="UTF-8"?>
<svg id="Layer_2" data-name="Layer 2" xmlns="http://www.w3.org/2000/svg" version="1.1" viewBox="0 0 30.88 30.88">
  <defs>
    <style>
      .cls-1 {
        fill: #b1b1b1;
        stroke-width: 0px;
      }
    </style>
  </defs>
  <path className="cls-1" d="M19.23,19.14c-2.34-3.4-4.68-6.81-7.03-10.21-.09-.14-.14-.35-.36-.35-.63,0-1.26,0-1.9,0,.02.08.02.11.04.13,3.07,4.46,6.14,8.93,9.21,13.39.07.1.13.22.27.22.62,0,1.23,0,1.92,0-.11-.18-.17-.29-.25-.4-.64-.93-1.28-1.85-1.91-2.78Z"/>
  <path className="cls-1" d="M15.44,0C6.91,0,0,6.91,0,15.44s6.91,15.44,15.44,15.44,15.44-6.91,15.44-15.44S23.97,0,15.44,0ZM22.28,23.11c-1.2-.02-2.4-.01-3.6-.01-1.29-1.87-2.59-3.74-3.87-5.62-.21-.31-.31-.29-.53-.03-1.51,1.78-3.05,3.53-4.55,5.32-.34.4-.67.63-1.2.54-.14-.02-.29,0-.5,0,.28-.46.63-.79.94-1.15,1.59-1.87,3.19-3.73,4.8-5.58.2-.23.16-.36.01-.58-1.87-2.69-3.72-5.4-5.58-8.1-.05-.08-.1-.16-.14-.24.08-.13.2-.07.3-.07,1.28,0,2.55,0,3.83-.01.23,0,.36.08.49.27,1.17,1.71,2.35,3.42,3.52,5.12.09.13.19.26.3.42.74-.86,1.45-1.69,2.17-2.52.91-1.05,1.83-2.11,2.74-3.16,0,0,0,0,0,0,0,0,0,0,0,0h0c.23-.25.53-.08.8-.12.14-.02.3,0,.45,0,.04.18-.1.25-.18.34-1.72,2.01-3.44,4.01-5.18,6-.19.22-.21.36-.03.61,1.79,2.57,3.55,5.15,5.33,7.73.08.11.14.23.21.34.15.52-.16.51-.54.5Z"/>
</svg>