<?xml version="1.0" encoding="UTF-8"?>
<svg id="Layer_2" data-name="Layer 2" xmlns="http://www.w3.org/2000/svg" viewBox="0 0 185.57 66.87">
  <defs>
    <style>
      .cls-1 {
        fill: #404040;
        stroke-width: 0px;
      }
    </style>
  </defs>
  <g>
    <path className="cls-1" d="M13,35.81l-.48.03c-.04-.08-.07-.17-.1-.27-.03-.1-.07-.19-.1-.27-.28-.78-.68-1.49-1.2-2.14-.52-.65-1.07-1.14-1.65-1.48-.48-.26-.98-.46-1.51-.6-.53-.14-1.07-.21-1.63-.21-1.04,0-1.87.37-2.5,1.12s-.94,1.74-.94,2.98c0,.76.45,1.53,1.36,2.31.91.78,2.27,1.5,4.09,2.16,1.94.7,3.39,1.61,4.36,2.74.97,1.13,1.45,2.33,1.45,3.61,0,.84-.16,1.61-.48,2.31-.32.7-.78,1.29-1.38,1.78-.6.49-1.31.87-2.14,1.14-.83.27-1.75.4-2.77.4s-1.92-.14-2.82-.42c-.9-.28-1.7-.68-2.4-1.2-.52-.38-.95-.54-1.29-.49-.34.05-.53.3-.57.76-.02.1-.03.21-.03.33s-.01.23-.03.33H.03l-.03-5.45h.45c.04.08.07.17.1.27.03.1.06.19.1.27.34.88.78,1.71,1.33,2.49.55.78,1.12,1.37,1.72,1.77,1.16.78,2.39,1.17,3.68,1.17s2.31-.42,3.09-1.26c.78-.84,1.17-1.95,1.17-3.32,0-.62-.43-1.27-1.3-1.96-.87-.69-2.16-1.35-3.88-1.99-2-.74-3.5-1.69-4.52-2.85-1.02-1.16-1.53-2.4-1.53-3.71,0-.82.14-1.56.42-2.23.28-.67.68-1.24,1.2-1.71.52-.47,1.14-.83,1.87-1.09.73-.26,1.54-.39,2.44-.39,1.02,0,2,.14,2.94.42l.06-.12c.12.06.24.12.36.19s.24.14.36.22c.46.18.88.39,1.26.63.38.22.69.31.94.28.25-.03.39-.18.43-.46.02-.06.03-.13.03-.21s0-.15.03-.21h.24v4.34Z"/>
    <path className="cls-1" d="M31.27,43.96h-.33l-.15-.75c-.14-.72-.46-1.3-.97-1.74-.51-.44-1.12-.66-1.84-.66h-4.52v8.93c0,.4.08.71.22.94.15.23.53.34,1.15.34h4.94c.96,0,1.81-.22,2.55-.66.74-.44,1.25-1.02,1.53-1.74l.18-.45h.33c-.08.44-.16.92-.25,1.45-.09.53-.18,1.01-.25,1.45h-.03v.03h-15.78v-.15h.36c.58,0,1.04-.19,1.38-.57.34-.38.51-.89.51-1.53v-15.57c0-.64-.17-1.15-.51-1.53-.34-.38-.8-.57-1.38-.57h-.36v-.15h15.04v.03c.06.48.12,1.01.19,1.6.07.59.13,1.12.19,1.6h-.33l-.24-.75c-.22-.72-.61-1.3-1.18-1.74-.57-.44-1.21-.66-1.93-.66h-6.32v9.52h4.52c.72,0,1.33-.22,1.84-.66.51-.44.83-1.02.97-1.74l.15-.75h.33v6.44Z"/>
    <path className="cls-1" d="M45.09,31.05v.15c-.52,0-.92.12-1.21.36-.29.24-.43.62-.43,1.14v17.04c0,.26.08.46.22.61s.53.22,1.15.22h4.97c.96,0,1.81-.22,2.55-.66.74-.44,1.25-1.02,1.53-1.74l.18-.45h.33c-.08.44-.16.92-.24,1.45-.08.53-.16,1.02-.24,1.48v.45h-15.28v-.15c.52,0,.92-.12,1.21-.36.29-.24.43-.62.43-1.14v-16.77c0-.52-.14-.9-.43-1.14-.29-.24-.69-.36-1.21-.36v-.15h6.47Z"/>
    <path className="cls-1" d="M71.12,43.96h-.33l-.15-.75c-.14-.72-.46-1.3-.97-1.74-.51-.44-1.12-.66-1.84-.66h-4.52v8.93c0,.4.08.71.22.94.15.23.53.34,1.15.34h4.94c.96,0,1.81-.22,2.55-.66.74-.44,1.25-1.02,1.53-1.74l.18-.45h.33c-.08.44-.16.92-.25,1.45-.09.53-.18,1.01-.25,1.45h-.03v.03h-15.78v-.15h.36c.58,0,1.04-.19,1.38-.57.34-.38.51-.89.51-1.53v-15.57c0-.64-.17-1.15-.51-1.53-.34-.38-.8-.57-1.38-.57h-.36v-.15h15.04v.03c.06.48.12,1.01.19,1.6.07.59.13,1.12.19,1.6h-.33l-.24-.75c-.22-.72-.61-1.3-1.18-1.74-.57-.44-1.21-.66-1.93-.66h-6.32v9.52h4.52c.72,0,1.33-.22,1.84-.66.51-.44.83-1.02.97-1.74l.15-.75h.33v6.44Z"/>
    <path className="cls-1" d="M98.26,50.64h-.24c-.02-.1-.03-.19-.03-.28s-.01-.18-.03-.28c-.04-.44-.26-.68-.66-.73-.4-.05-.89.09-1.47.43-.9.52-1.87.92-2.91,1.21-1.04.29-2.22.43-3.53.43-1.66,0-3.17-.25-4.52-.75-1.36-.5-2.52-1.2-3.49-2.1-.97-.9-1.72-1.98-2.25-3.25-.53-1.27-.79-2.68-.79-4.24s.27-2.97.82-4.24c.55-1.27,1.32-2.35,2.31-3.25.99-.9,2.18-1.6,3.58-2.1,1.4-.5,2.95-.75,4.64-.75s2.94.13,3.97.4c1.03.27,1.9.65,2.62,1.15.46.32.85.46,1.17.43.32-.03.5-.22.54-.58.02-.08.03-.16.03-.25s0-.17.03-.25h.24v4.73h-.45c-.04-.08-.08-.17-.1-.27-.03-.1-.06-.19-.1-.27-.28-.72-.7-1.42-1.27-2.11s-1.18-1.23-1.84-1.63c-.64-.4-1.34-.7-2.11-.91-.77-.21-1.66-.31-2.68-.31-1.18,0-2.26.24-3.23.73-.98.49-1.81,1.18-2.5,2.07-.69.89-1.22,1.96-1.6,3.22-.38,1.26-.57,2.66-.57,4.19s.18,2.94.55,4.19c.37,1.26.88,2.33,1.54,3.22.66.89,1.46,1.58,2.4,2.07.94.49,1.98.73,3.11.73.84,0,1.69-.15,2.55-.45.86-.3,1.67-.69,2.43-1.18.76-.49,1.42-1.03,1.99-1.63.57-.6.97-1.2,1.21-1.8.04-.08.07-.16.1-.25s.06-.17.1-.25h.45v4.91Z"/>
    <path className="cls-1" d="M122.59,30.6l.33.06c.04.14.09.28.16.43.07.15.12.28.16.4h-.15v.36c.18.46.37.94.58,1.45s.39.97.55,1.39h-.33l-.27-.45c-.44-.72-1.02-1.3-1.75-1.74-.73-.44-1.48-.66-2.26-.66h-5.09v17.64c0,.52.14.9.43,1.14.29.24.69.36,1.21.36v.15h-6.47v-.15c.52,0,.92-.12,1.21-.36.29-.24.43-.62.43-1.14v-17.64h-5.12c-.76,0-1.5.22-2.23.66-.73.44-1.32,1.02-1.78,1.74l-.27.45h-.33c.18-.44.38-.93.6-1.47.22-.54.43-1.04.63-1.5v-.3h-.15c.04-.14.09-.28.15-.43.06-.15.11-.28.15-.4h.27c.22.16.63.27,1.23.34.6.07,1.29.1,2.07.1h12.7c.78,0,1.47-.03,2.08-.1.61-.07,1.02-.18,1.24-.34Z"/>
    <path className="cls-1" d="M134.25,50.97v.15h-6.47v-.15c.52,0,.92-.12,1.21-.36.29-.24.43-.62.43-1.14v-16.77c0-.52-.14-.9-.43-1.14-.29-.24-.69-.36-1.21-.36v-.15h6.47v.15c-.52,0-.92.12-1.21.36-.29.24-.43.62-.43,1.14v16.77c0,.52.14.9.43,1.14.29.24.69.36,1.21.36Z"/>
    <path className="cls-1" d="M138.99,41.08c0-1.56.27-2.97.82-4.24.55-1.27,1.32-2.35,2.31-3.25.99-.9,2.18-1.6,3.58-2.1,1.4-.5,2.95-.75,4.65-.75s3.33.25,4.77.75c1.44.5,2.67,1.2,3.69,2.1,1.02.9,1.81,1.98,2.37,3.25.56,1.27.84,2.68.84,4.24s-.29,2.97-.86,4.24c-.57,1.27-1.38,2.35-2.43,3.25s-2.31,1.6-3.78,2.1c-1.47.5-3.1.75-4.9.75-1.66,0-3.17-.25-4.53-.75-1.36-.5-2.52-1.2-3.49-2.1-.97-.9-1.72-1.98-2.25-3.25-.53-1.27-.79-2.68-.79-4.24ZM142.46,41.08c0,1.54.18,2.94.55,4.19s.89,2.33,1.55,3.22c.67.89,1.47,1.58,2.41,2.07.94.49,1.97.73,3.11.73,1.28,0,2.43-.24,3.47-.73,1.04-.49,1.92-1.18,2.66-2.07.74-.89,1.31-1.96,1.72-3.22.41-1.26.61-2.66.61-4.19s-.2-2.94-.6-4.19c-.4-1.26-.96-2.33-1.67-3.22-.72-.89-1.58-1.58-2.59-2.07-1.01-.49-2.13-.73-3.36-.73s-2.25.24-3.21.73c-.97.49-1.79,1.18-2.48,2.07-.69.89-1.22,1.96-1.6,3.22-.38,1.26-.57,2.66-.57,4.19Z"/>
    <path className="cls-1" d="M164.51,31.2v-.15l5.45.03c2.18,2.62,4.35,5.22,6.53,7.82,2.18,2.6,4.35,5.2,6.53,7.82l-.06-14.02c0-.52-.14-.9-.43-1.14-.29-.24-.69-.36-1.21-.36v-.18l4.25.03v.12c-.48,0-.86.1-1.15.3-.29.2-.46.53-.52.99l-.21,18.69h-.63c-2.32-2.74-4.62-5.45-6.92-8.15-2.3-2.7-4.6-5.41-6.92-8.15l.09,14.65c0,.52.15.9.45,1.14.3.24.7.36,1.2.36v.15h-4.22v-.15c.52,0,.92-.12,1.21-.36.29-.24.43-.62.43-1.14l.03-15.6-1.11-1.32c-.86-.92-1.79-1.38-2.79-1.38Z"/>
  </g>
  <g>
    <g>
      <path className="cls-1" d="M79,40.03c-.06,0-.13-.01-.19-.04-.26-.11-.39-.4-.29-.67l10.74-26.82c.11-.26.4-.39.67-.28.26.11.39.4.29.67l-10.74,26.82c-.08.2-.27.32-.48.32Z"/>
      <path className="cls-1" d="M79.82,15.89c-.28,0-.5-.22-.51-.5,0-.28.22-.52.5-.52l21.14-.5c.28.01.52.22.52.5,0,.28-.22.52-.5.52l-21.14.5h-.01Z"/>
    </g>
    <g>
      <path className="cls-1" d="M89.2,25.27c-.06,0-.13-.01-.19-.04-.26-.11-.39-.4-.29-.67L98.44.32c.11-.26.4-.39.67-.28.26.11.39.4.29.67l-9.71,24.25c-.08.2-.27.32-.48.32Z"/>
      <path className="cls-1" d="M89.94,23.43c-.1,0-.21-.03-.3-.09-.23-.16-.28-.48-.12-.71,1.43-2.02,4.01-5.38,5.2-5.28.29.03.52.2.64.47.2.44.2,1.11.19,1.9,0,.89,0,2.25.45,2.48.16.08.7.16,2.17-.9l1.9-1.46c.22-.17.55-.13.72.09.17.22.13.55-.09.72l-1.91,1.46c-1.47,1.06-2.5,1.37-3.25.98-1.01-.52-1.01-2.05-1.01-3.39,0-.46,0-.97-.05-1.28-.75.43-2.65,2.7-4.13,4.78-.1.14-.26.22-.42.22Z"/>
    </g>
    <path className="cls-1" d="M102.12,23.67c-1.38,0-1.98-.57-2.24-1.09-.62-1.24.27-3.06,1.11-3.96.87-.94,2.22-.93,2.93-.33.56.48.61,1.22.12,1.85-.87,1.11-2.57,1.05-3.26.97-.1.4-.1.76.03,1.02.27.53,1.15.57,1.84.49.04,0,1.68-.14,3.52-2.55.17-.22.49-.27.72-.09.22.17.27.49.09.72-2.16,2.82-4.18,2.94-4.26,2.95-.21.02-.41.03-.59.03ZM101.17,20.11c.66.04,1.62-.05,2.06-.61.21-.27.09-.37.02-.43-.29-.25-1-.3-1.51.25-.21.23-.4.5-.57.8Z"/>
  </g>
  <g>
    <path className="cls-1" d="M50.53,66.45v-4.39h.91c.32,0,.56.02.71.05.15.03.28.09.39.17.14.1.25.24.33.4.08.16.12.34.12.54,0,.23-.06.43-.17.58-.11.16-.27.27-.48.33.26.04.47.16.62.35.15.19.23.44.23.73,0,.18-.03.34-.1.5s-.15.3-.27.41c-.12.12-.28.21-.46.26-.18.05-.49.08-.92.08h-.91ZM51.04,62.51v1.47h.41c.37,0,.63-.05.79-.16s.23-.29.23-.55c0-.28-.07-.48-.21-.59-.14-.11-.41-.17-.8-.17h-.41ZM51.04,64.39v1.6h.41c.28,0,.48-.01.6-.03.12-.02.22-.06.3-.11.09-.06.16-.15.21-.27.05-.11.08-.24.08-.38,0-.16-.03-.3-.09-.42-.06-.12-.15-.21-.27-.28-.07-.04-.15-.07-.24-.09-.09-.02-.23-.03-.43-.03h-.56Z"/>
    <path className="cls-1" d="M56.31,66.45v-2.01l-1.49-2.38h.6l1.15,1.9,1.14-1.9h.6l-1.48,2.38v2.01h-.52Z"/>
    <path className="cls-1" d="M90.55,64.48v1.97h-.51v-4.39h.92c.32,0,.56.02.71.05.15.03.28.09.4.17.14.1.25.24.33.41.08.17.12.37.12.58s-.04.41-.12.58c-.08.17-.19.31-.33.41-.11.08-.24.14-.39.17-.15.03-.39.05-.71.05h-.41ZM90.55,64.01h.26c.45,0,.75-.05.9-.16.15-.11.23-.29.23-.55,0-.28-.08-.48-.24-.59-.16-.11-.46-.17-.9-.17h-.26v1.47Z"/>
    <path className="cls-1" d="M94.63,66.45v-4.39h1.03c.29,0,.51.02.65.05.14.03.26.09.36.17.13.1.23.24.3.41.07.17.11.36.11.57,0,.36-.1.63-.3.82-.2.19-.5.28-.88.28h-.09l1.68,2.09h-.66l-1.6-2.09h-.08v2.09h-.51ZM95.14,62.5v1.47h.4c.41,0,.68-.05.82-.16s.21-.29.21-.55c0-.28-.07-.48-.21-.59-.14-.11-.41-.17-.81-.17h-.4Z"/>
    <path className="cls-1" d="M103.89,64.26c0,.31-.06.61-.17.89-.12.28-.29.52-.51.74-.22.22-.48.38-.77.5-.29.12-.59.18-.9.18s-.61-.06-.9-.18c-.29-.12-.54-.28-.76-.5-.22-.22-.39-.47-.51-.74-.12-.28-.18-.57-.18-.88s.06-.61.18-.89c.12-.28.29-.53.51-.75.22-.21.47-.38.76-.49.29-.12.59-.17.9-.17s.61.06.9.17c.29.12.54.28.76.49.22.22.39.46.51.74.12.28.17.58.17.89ZM101.54,66.08c.24,0,.47-.05.69-.14s.41-.22.59-.4.3-.37.39-.59.14-.45.14-.69-.05-.48-.14-.7-.22-.42-.39-.59c-.17-.17-.37-.3-.58-.39-.22-.09-.45-.13-.69-.13s-.48.04-.69.13-.41.22-.58.39c-.17.17-.3.37-.39.59-.09.22-.14.45-.14.7s.04.47.13.69c.09.22.22.41.39.59.18.18.37.31.59.4.22.09.44.14.69.14Z"/>
    <path className="cls-1" d="M106.73,64.48v1.97h-.51v-4.39h.92c.32,0,.56.02.71.05.15.03.28.09.4.17.14.1.25.24.33.41.08.17.12.37.12.58s-.04.41-.12.58c-.08.17-.19.31-.33.41-.11.08-.24.14-.39.17-.15.03-.39.05-.71.05h-.41ZM106.73,64.01h.26c.45,0,.75-.05.9-.16.15-.11.23-.29.23-.55,0-.28-.08-.48-.24-.59-.16-.11-.46-.17-.9-.17h-.26v1.47Z"/>
    <path className="cls-1" d="M110.81,66.45v-4.39h2.32v.48h-1.79v1.26h1.79v.49h-1.79v1.68h1.79v.49h-2.32Z"/>
    <path className="cls-1" d="M115.48,66.45v-4.39h1.03c.29,0,.51.02.65.05.14.03.26.09.36.17.13.1.23.24.3.41.07.17.11.36.11.57,0,.36-.1.63-.3.82-.2.19-.5.28-.88.28h-.09l1.68,2.09h-.66l-1.6-2.09h-.08v2.09h-.51ZM115.99,62.5v1.47h.4c.41,0,.68-.05.82-.16s.21-.29.21-.55c0-.28-.07-.48-.21-.59-.14-.11-.41-.17-.81-.17h-.4Z"/>
    <path className="cls-1" d="M121.01,66.45v-3.89h-1.24v-.5h3.01v.5h-1.24v3.89h-.53Z"/>
    <path className="cls-1" d="M124.84,66.45v-4.39h.52v4.39h-.52Z"/>
    <path className="cls-1" d="M127.9,66.45v-4.39h2.32v.48h-1.79v1.26h1.79v.49h-1.79v1.68h1.79v.49h-2.32Z"/>
    <path className="cls-1" d="M134.17,64.01c.29.12.5.28.65.49.14.2.22.44.22.72,0,.4-.13.73-.39.98-.26.25-.6.37-1.02.37-.35,0-.64-.09-.87-.27-.23-.18-.39-.43-.47-.75l.47-.23c.06.27.17.47.32.6.15.14.33.21.55.21.26,0,.47-.08.64-.23.16-.15.24-.35.24-.59,0-.2-.06-.37-.17-.51-.11-.14-.28-.27-.51-.37l-.53-.23c-.29-.12-.51-.28-.65-.47-.14-.19-.21-.42-.21-.69,0-.31.12-.57.35-.77s.53-.31.89-.31c.26,0,.49.06.69.17s.34.28.45.49l-.43.28c-.1-.17-.21-.3-.33-.38-.12-.08-.26-.12-.41-.12-.2,0-.36.06-.48.18-.13.12-.19.27-.19.46,0,.16.05.29.14.4s.24.21.45.3l.63.28Z"/>
    <path className="cls-1" d="M65.01,61.88l2,4.57h-.57l-.57-1.35h-1.72l-.57,1.35h-.57l1.99-4.57ZM65.01,63.04l-.7,1.62h1.4l-.7-1.62Z"/>
    <path className="cls-1" d="M73.37,66.87h-.64l-.58-.63c-.17.1-.36.18-.57.23-.21.05-.43.08-.68.08s-.48-.04-.71-.11c-.22-.07-.43-.18-.62-.32-.31-.23-.54-.5-.7-.81-.16-.32-.24-.67-.24-1.05,0-.31.06-.6.18-.88.12-.28.29-.53.51-.75.22-.22.48-.38.76-.5.28-.11.58-.17.9-.17s.6.05.88.15.52.25.74.46c.24.21.42.47.54.76.12.29.19.6.19.94,0,.35-.07.67-.2.96-.13.29-.33.54-.58.74l.84.9ZM71.52,64.88l.65.7c.19-.15.33-.33.43-.56.1-.23.15-.47.15-.74,0-.18-.02-.35-.06-.51s-.1-.31-.18-.44c-.17-.27-.38-.49-.65-.64-.27-.15-.56-.22-.89-.22-.24,0-.47.05-.69.14-.22.09-.41.22-.58.39-.17.17-.3.36-.39.58-.09.22-.13.45-.13.69,0,.31.06.59.19.84.12.25.31.46.56.64.14.1.3.18.47.24s.35.08.53.08c.16,0,.32-.02.46-.05.14-.03.27-.08.39-.15l-.9-.97h.64Z"/>
    <path className="cls-1" d="M75.63,62.06h.53v2.73c0,.44.09.77.28.98.19.21.49.31.89.31s.7-.1.89-.31c.19-.21.28-.53.28-.98v-2.73h.53v2.73c0,.59-.14,1.04-.42,1.33-.28.3-.71.44-1.28.44s-.99-.15-1.28-.44c-.28-.29-.42-.74-.42-1.33v-2.73Z"/>
    <path className="cls-1" d="M82.83,61.88l2,4.57h-.57l-.57-1.35h-1.72l-.57,1.35h-.57l1.99-4.57ZM82.83,63.04l-.7,1.62h1.4l-.7-1.62Z"/>
  </g>
</svg>